<?xml version="1.0" encoding="utf-8"?>
<!-- Generator: Adobe Illustrator 23.0.3, SVG Export Plug-In . SVG Version: 6.00 Build 0)  -->
<svg version="1.1" id="Layer_1" xmlns="http://www.w3.org/2000/svg" xmlns:xlink="http://www.w3.org/1999/xlink" x="0px" y="0px"
	 viewBox="0 0 1920 1080" style="enable-background:new 0 0 1920 1080;" xml:space="preserve">
<style type="text/css">
	.st0{fill:#1976D2;}
	.st1{opacity:0.1;}
	.st2{fill:#FFFFFF;}
</style>
<g>
	<rect class="st0" width="1920" height="1080"/>
</g>
<g class="st1">
	<path class="st2" d="M273.5,778c6.1,0,11.5-2.4,15.6-6.3l22.2,11.1c-0.1,0.9-0.3,1.8-0.3,2.7c0,12.4,10.1,22.5,22.5,22.5
		s22.5-10.1,22.5-22.5c0-3.5-0.9-6.7-2.3-9.6l30.1-30.1c2.9,1.4,6.2,2.3,9.6,2.3c12.4,0,22.5-10.1,22.5-22.5c0-2.3-0.5-4.5-1.1-6.7
		l26.2-19.6c3.6,2.4,7.8,3.8,12.5,3.8c12.4,0,22.5-10.1,22.5-22.5S465.9,658,453.5,658S431,668.1,431,680.5c0,2.3,0.5,4.5,1.1,6.7
		L406,706.8c-3.6-2.4-7.8-3.8-12.5-3.8c-12.4,0-22.5,10.1-22.5,22.5c0,3.5,0.9,6.7,2.3,9.6l-30.1,30.1c-2.9-1.4-6.2-2.3-9.6-2.3
		c-6.1,0-11.5,2.4-15.6,6.3l-22.2-11.1c0.1-0.9,0.3-1.8,0.3-2.7c0-12.4-10.1-22.5-22.5-22.5S251,743.1,251,755.5
		S261.1,778,273.5,778z"/>
	<path class="st2" d="M484,899h-8V740.5c0-4.1-3.4-7.5-7.5-7.5h-30c-4.1,0-7.5,3.4-7.5,7.5V899h-15V785.5c0-4.1-3.4-7.5-7.5-7.5h-30
		c-4.1,0-7.5,3.4-7.5,7.5V899h-15v-53.5c0-4.1-3.4-7.5-7.5-7.5h-30c-4.1,0-7.5,3.4-7.5,7.5V899h-15v-83.5c0-4.1-3.4-7.5-7.5-7.5h-30
		c-4.1,0-7.5,3.4-7.5,7.5V899h-8c-4.1,0-7.5,3.4-7.5,7.5s3.4,7.5,7.5,7.5h241c4.1,0,7.5-3.4,7.5-7.5S488.1,899,484,899z"/>
</g>
<g class="st1">
	<path class="st2" d="M1496.2,302.7c2.5,0,4.8-1,6.4-2.6l9.2,4.6c0,0.4-0.1,0.7-0.1,1.1c0,5.1,4.2,9.3,9.3,9.3s9.3-4.2,9.3-9.3
		c0-1.4-0.4-2.8-0.9-4l12.5-12.5c1.2,0.6,2.6,0.9,4,0.9c5.1,0,9.3-4.2,9.3-9.3c0-1-0.2-1.9-0.5-2.8l10.8-8.1c1.5,1,3.3,1.6,5.2,1.6
		c5.1,0,9.3-4.2,9.3-9.3s-4.2-9.3-9.3-9.3s-9.3,4.2-9.3,9.3c0,1,0.2,1.9,0.5,2.8l-10.8,8.1c-1.5-1-3.3-1.6-5.2-1.6
		c-5.1,0-9.3,4.2-9.3,9.3c0,1.4,0.4,2.8,0.9,4l-12.5,12.5c-1.2-0.6-2.6-0.9-4-0.9c-2.5,0-4.8,1-6.4,2.6l-9.2-4.6
		c0-0.4,0.1-0.7,0.1-1.1c0-5.1-4.2-9.3-9.3-9.3s-9.3,4.2-9.3,9.3S1491.1,302.7,1496.2,302.7z"/>
	<path class="st2" d="M1583.4,352.8h-3.3v-65.6c0-1.7-1.4-3.1-3.1-3.1h-12.4c-1.7,0-3.1,1.4-3.1,3.1v65.6h-6.2v-47
		c0-1.7-1.4-3.1-3.1-3.1h-12.4c-1.7,0-3.1,1.4-3.1,3.1v47h-6.2v-22.2c0-1.7-1.4-3.1-3.1-3.1h-12.4c-1.7,0-3.1,1.4-3.1,3.1v22.2h-6.2
		v-34.6c0-1.7-1.4-3.1-3.1-3.1H1490c-1.7,0-3.1,1.4-3.1,3.1v34.6h-3.3c-1.7,0-3.1,1.4-3.1,3.1s1.4,3.1,3.1,3.1h99.8
		c1.7,0,3.1-1.4,3.1-3.1S1585.1,352.8,1583.4,352.8z"/>
</g>
<g class="st1">
	<path class="st2" d="M650.7,303.2c30.2,5.9,54.2,29.9,60.1,60.1h-60.1V303.2 M639,290.1v85h85l-0.2-3.1
		c-3-43.6-38.1-78.7-81.7-81.7L639,290.1L639,290.1z"/>
	<path class="st2" d="M698.6,439.9l2.1-2.2c13.5-14.7,21.7-33.7,23.1-53.5l0.2-3.1h-84.3L698.6,439.9z"/>
	<path class="st2" d="M632.9,290.1l-3.1,0.2c-45.9,3.1-81.9,41.7-81.9,87.7c0,21.2,7.7,41.7,21.6,57.7l2.1,2.4l61.3-61.3V290.1z"/>
	<path class="st2" d="M634.1,400.5l42.1,42.1c-12.1,7.6-26.1,11.6-40.4,11.6c-15.2,0-30-4.6-42.5-13L634.1,400.5 M634.1,383.9
		l-58.4,58.4l2.4,2.1c16,14,36.5,21.6,57.7,21.6c20.3,0,40.1-7.1,55.8-20l2.5-2.1L634.1,383.9L634.1,383.9z"/>
</g>
<g class="st1">
	<g>
		<path class="st2" d="M1381.3,841.1h1c-10.6-1.3-16.3-5.6-19.3-9.9h-55c-3,4.3-8.7,8.5-19.3,9.9h0.7c-3.3,0-6,2.7-6,6
			c0,3.3,2.7,6,6,6h91.9c3.3,0,6-2.7,6-6C1387.3,843.8,1384.6,841.1,1381.3,841.1z"/>
		<path class="st2" d="M1443,782.4V669.8c0-8.6-7-15.6-15.6-15.6h-183.8c-8.6,0-15.6,7-15.6,15.6v115.3c0,0,0,0.1,0,0.2v20.9
			c0,0.1,0,0.2,0,0.3v1.2c0,0.1,0,0.2,0,0.3v0.3l0,0c0.3,7.3,6.3,13.2,13.8,13.2h63.4h6.3h47.9h3.9h65.9c7.4,0,13.5-5.9,13.8-13.2
			l0,0L1443,782.4L1443,782.4z M1348,806.4c0,1.9-1.5,3.5-3.5,3.5h-18.1c-1.9,0-3.5-1.5-3.5-3.5V804c0-1.9,1.5-3.5,3.5-3.5h18.1
			c1.9,0,3.5,1.5,3.5,3.5V806.4z M1427.4,787.9h-183.8c-1.5,0-2.7-1.2-2.7-2.7V669.8c0-1.5,1.2-2.7,2.7-2.7h183.7
			c1.5,0,2.7,1.2,2.7,2.7v115.3l0,0C1430.1,786.6,1428.9,787.9,1427.4,787.9z"/>
		<path class="st2" d="M1380.3,722.8h6.9l0.2-0.2c0-2.1-0.2-4.3-0.5-6.4L1380.3,722.8z"/>
		<path class="st2" d="M1364.5,683.6l-21.9,21.9v6.9l26.1-26.1C1367.3,685.3,1365.9,684.4,1364.5,683.6z"/>
		<path class="st2" d="M1354.8,679.6l-12.2,12.2v6.9l17.3-17.3C1358.2,680.7,1356.5,680.1,1354.8,679.6z"/>
		<path class="st2" d="M1349.1,678.4c-2.1-0.3-4.2-0.5-6.4-0.5l-0.1,0.1v6.9L1349.1,678.4z"/>
		<path class="st2" d="M1359.7,722.8l22-22c-0.8-1.4-1.7-2.8-2.7-4.2l-26.2,26.2H1359.7z"/>
		<path class="st2" d="M1376,692.8c-0.5-0.6-1.1-1.2-1.6-1.7c-0.6-0.6-1.2-1.2-1.8-1.7l-29.9,30v3.5h3.4L1376,692.8z"/>
		<path class="st2" d="M1373.5,722.8l12.3-12.3c-0.5-1.7-1.1-3.4-1.8-5.1l-17.4,17.4H1373.5z"/>
		<path class="st2" d="M1334.7,685.7c-24.9,0-45.1,20.2-45.1,45.1s20.2,45.1,45.1,45.1c24.9,0,45.1-20.2,45.1-45.1h-45.1V685.7z"/>
	</g>
</g>
</svg>
