<svg xmlns="http://www.w3.org/2000/svg" width="973.016" height="167.306" viewBox="0 0 973.016 167.306">
  <defs>
    <style>
      .cls-1, .cls-9 {
        fill: #a6ea9d;
      }

      .cls-2 {
        fill: #e9e9f0;
      }

      .cls-3, .cls-5, .cls-6 {
        fill: #fff;
      }

      .cls-3 {
        stroke: #ccc;
      }

      .cls-4 {
        fill: #ccc;
      }

      .cls-5 {
        stroke: #b1ecaa;
      }

      .cls-7, .cls-9 {
        stroke: none;
      }

      .cls-8 {
        fill: none;
      }
    </style>
  </defs>
  <g id="icons" transform="translate(-1230 -696)">
    <rect id="Line" class="cls-1" width="4.403" height="101.264" transform="translate(1500.771 770.452) rotate(90)"/>
    <rect id="Line-2" data-name="Line" class="cls-2" width="4.403" height="101.264" transform="translate(1769.341 770.452) rotate(90)"/>
    <rect id="Line-3" data-name="Line" class="cls-2" width="4.403" height="101.264" transform="translate(2037.911 770.452) rotate(90)"/>
    <g id="Icon" transform="translate(2035.71 696)">
      <g id="Ellipse" class="cls-3">
        <circle class="cls-7" cx="83.653" cy="83.653" r="83.653"/>
        <circle class="cls-8" cx="83.653" cy="83.653" r="83.153"/>
      </g>
      <path id="ic_person_24px" class="cls-4" d="M44.37,44.37A20.185,20.185,0,1,0,24.185,24.185,20.179,20.179,0,0,0,44.37,44.37Zm0,10.092C30.9,54.462,4,61.224,4,74.647V84.74H84.74V74.647C84.74,61.224,57.843,54.462,44.37,54.462Z" transform="translate(38.92 39.63)"/>
    </g>
    <g id="Icon-2" data-name="Icon" transform="translate(1767.14 696)">
      <g id="Ellipse-2" data-name="Ellipse" class="cls-3">
        <circle class="cls-7" cx="83.653" cy="83.653" r="83.653"/>
        <circle class="cls-8" cx="83.653" cy="83.653" r="83.153"/>
      </g>
    </g>
    <g id="Icon-3" data-name="Icon" transform="translate(1498.57 696)">
      <g id="Ellipse-3" data-name="Ellipse" class="cls-5" transform="translate(0 0)">
        <circle class="cls-7" cx="83.653" cy="83.653" r="83.653"/>
        <circle class="cls-8" cx="83.653" cy="83.653" r="83.153"/>
      </g>
    </g>
    <g id="Icon-4" data-name="Icon" transform="translate(1230 696)">
      <g id="Ellipse-4" data-name="Ellipse" class="cls-6">
        <path class="cls-7" d="M 83.65292358398438 166.8058471679688 C 78.01078033447266 166.8058471679688 72.37232208251953 166.2374420166016 66.89417266845703 165.1164703369141 C 61.55552673339844 164.0240020751953 56.30423736572266 162.3939208984375 51.28621673583984 160.271484375 C 46.35917282104492 158.1875 41.60698699951172 155.6081085205078 37.16169357299805 152.6049194335938 C 32.75848770141602 149.6301727294922 28.6179027557373 146.2138824462891 24.85492324829102 142.450927734375 C 21.09196472167969 138.6879425048828 17.67567443847656 134.54736328125 14.70092391967773 130.1441497802734 C 11.69773578643799 125.698860168457 9.118340492248535 120.9466705322266 7.034360885620117 116.0196304321289 C 4.911923408508301 111.0016098022461 3.281840324401855 105.7503204345703 2.189381837844849 100.4116744995117 C 1.068402767181396 94.93352508544922 0.5000069141387939 89.29506683349609 0.5000069141387939 83.65292358398438 C 0.5000069141387939 78.01078033447266 1.068402767181396 72.37232208251953 2.189381837844849 66.89417266845703 C 3.281840324401855 61.55552673339844 4.911923408508301 56.30423736572266 7.034360885620117 51.28621673583984 C 9.118340492248535 46.35917282104492 11.69773578643799 41.60698699951172 14.70092391967773 37.16169357299805 C 17.67567443847656 32.75848770141602 21.09196472167969 28.6179027557373 24.85492324829102 24.85492324829102 C 28.6179027557373 21.09196472167969 32.75848770141602 17.67567443847656 37.16169357299805 14.70092391967773 C 41.60698699951172 11.69773578643799 46.35917282104492 9.118340492248535 51.28621673583984 7.034360885620117 C 56.30423736572266 4.911923408508301 61.55552673339844 3.281840324401855 66.89417266845703 2.189381837844849 C 72.37232208251953 1.068402767181396 78.01078033447266 0.5000069141387939 83.65292358398438 0.5000069141387939 C 89.29506683349609 0.5000069141387939 94.93352508544922 1.068402767181396 100.4116744995117 2.189381837844849 C 105.7503204345703 3.281840324401855 111.0016098022461 4.911923408508301 116.0196304321289 7.034360885620117 C 120.9466705322266 9.118340492248535 125.698860168457 11.69773578643799 130.1441497802734 14.70092391967773 C 134.54736328125 17.67567443847656 138.6879425048828 21.09196472167969 142.450927734375 24.85492324829102 C 146.2138824462891 28.6179027557373 149.6301727294922 32.75848770141602 152.6049194335938 37.16169357299805 C 155.6081085205078 41.60698699951172 158.1875 46.35917282104492 160.271484375 51.28621673583984 C 162.3939208984375 56.30423736572266 164.0240020751953 61.55552673339844 165.1164703369141 66.89417266845703 C 166.2374420166016 72.37232208251953 166.8058471679688 78.01078033447266 166.8058471679688 83.65292358398438 C 166.8058471679688 89.29506683349609 166.2374420166016 94.93352508544922 165.1164703369141 100.4116744995117 C 164.0240020751953 105.7503204345703 162.3939208984375 111.0016098022461 160.271484375 116.0196304321289 C 158.1875 120.9466705322266 155.6081085205078 125.698860168457 152.6049194335938 130.1441497802734 C 149.6301727294922 134.54736328125 146.2138824462891 138.6879425048828 142.450927734375 142.450927734375 C 138.6879425048828 146.2138824462891 134.54736328125 149.6301727294922 130.1441497802734 152.6049194335938 C 125.698860168457 155.6081085205078 120.9466705322266 158.1875 116.0196304321289 160.271484375 C 111.0016098022461 162.3939208984375 105.7503204345703 164.0240020751953 100.4116744995117 165.1164703369141 C 94.93352508544922 166.2374420166016 89.29506683349609 166.8058471679688 83.65292358398438 166.8058471679688 Z"/>
        <path class="cls-9" d="M 83.65292358398438 0.9999847412109375 C 78.04438018798828 0.9999847412109375 72.43964385986328 1.564971923828125 66.99442291259766 2.679229736328125 C 61.68807220458984 3.765060424804688 56.46862030029297 5.385269165039062 51.48098754882812 7.494857788085938 C 46.58366394042969 9.566253662109375 41.86013793945312 12.13009643554688 37.44157409667969 15.115234375 C 33.06474304199219 18.0721435546875 28.94894409179688 21.468017578125 25.20846557617188 25.20846557617188 C 21.468017578125 28.94894409179688 18.0721435546875 33.06474304199219 15.115234375 37.44157409667969 C 12.13009643554688 41.86013793945312 9.566253662109375 46.58366394042969 7.494857788085938 51.48098754882812 C 5.385269165039062 56.46862030029297 3.765060424804688 61.68807220458984 2.679229736328125 66.99442291259766 C 1.564971923828125 72.43964385986328 0.9999847412109375 78.04438018798828 0.9999847412109375 83.65292358398438 C 0.9999847412109375 89.26146697998047 1.564971923828125 94.86620330810547 2.679229736328125 100.3114242553711 C 3.765060424804688 105.6177520751953 5.385269165039062 110.8372268676758 7.494857788085938 115.8248596191406 C 9.566253662109375 120.72216796875 12.13009643554688 125.4457092285156 15.115234375 129.8642578125 C 18.0721435546875 134.2410736083984 21.468017578125 138.3569030761719 25.20846557617188 142.0973510742188 C 28.94894409179688 145.8378143310547 33.06474304199219 149.2336883544922 37.44157409667969 152.1905975341797 C 41.86013793945312 155.1757202148438 46.58366394042969 157.7395782470703 51.48098754882812 159.8109741210938 C 56.46862030029297 161.9205474853516 61.68807220458984 163.540771484375 66.99442291259766 164.6266021728516 C 72.43964385986328 165.7408599853516 78.04438018798828 166.3058319091797 83.65292358398438 166.3058319091797 C 89.26146697998047 166.3058319091797 94.86620330810547 165.7408599853516 100.3114242553711 164.6266021728516 C 105.6177520751953 163.540771484375 110.8372268676758 161.9205474853516 115.8248596191406 159.8109741210938 C 120.72216796875 157.7395782470703 125.4457092285156 155.1757202148438 129.8642578125 152.1905975341797 C 134.2410736083984 149.2336883544922 138.3569030761719 145.8378143310547 142.0973510742188 142.0973510742188 C 145.8378143310547 138.3569030761719 149.2336883544922 134.2410736083984 152.1905975341797 129.8642578125 C 155.1757202148438 125.4457092285156 157.7395782470703 120.72216796875 159.8109741210938 115.8248596191406 C 161.9205474853516 110.8372268676758 163.540771484375 105.6177520751953 164.6266021728516 100.3114242553711 C 165.7408599853516 94.86620330810547 166.3058319091797 89.26146697998047 166.3058319091797 83.65292358398438 C 166.3058319091797 78.04438018798828 165.7408599853516 72.43964385986328 164.6266021728516 66.99442291259766 C 163.540771484375 61.68807220458984 161.9205474853516 56.46862030029297 159.8109741210938 51.48098754882812 C 157.7395782470703 46.58366394042969 155.1757202148438 41.86013793945312 152.1905975341797 37.44157409667969 C 149.2336883544922 33.06474304199219 145.8378143310547 28.94894409179688 142.0973510742188 25.20846557617188 C 138.3569030761719 21.468017578125 134.2410736083984 18.0721435546875 129.8642578125 15.115234375 C 125.4457092285156 12.13009643554688 120.72216796875 9.566253662109375 115.8248596191406 7.494857788085938 C 110.8372268676758 5.385269165039062 105.6177520751953 3.765060424804688 100.3114242553711 2.679229736328125 C 94.86620330810547 1.564971923828125 89.26146697998047 0.9999847412109375 83.65292358398438 0.9999847412109375 M 83.65292358398438 -1.52587890625e-05 C 129.8531494140625 -1.52587890625e-05 167.3058319091797 37.45268249511719 167.3058319091797 83.65292358398438 C 167.3058319091797 129.8531494140625 129.8531494140625 167.3058319091797 83.65292358398438 167.3058319091797 C 37.45268249511719 167.3058319091797 -1.52587890625e-05 129.8531494140625 -1.52587890625e-05 83.65292358398438 C -1.52587890625e-05 37.45268249511719 37.45268249511719 -1.52587890625e-05 83.65292358398438 -1.52587890625e-05 Z"/>
      </g>
      <path id="ic_location_city_24px" class="cls-1" d="M62.822,46.867V16.956L47.867,2,32.911,16.956v9.97H3V96.719H92.734V46.867ZM22.941,86.748H12.97v-9.97h9.97Zm0-19.941H12.97v-9.97h9.97Zm0-19.941H12.97V36.9h9.97ZM52.852,86.748h-9.97v-9.97h9.97Zm0-19.941h-9.97v-9.97h9.97Zm0-19.941h-9.97V36.9h9.97Zm0-19.941h-9.97v-9.97h9.97ZM82.763,86.748h-9.97v-9.97h9.97Zm0-19.941h-9.97v-9.97h9.97Z" transform="translate(36.133 34.141)"/>
    </g>
    <path id="ic_store_mall_directory_24px" class="cls-4" d="M73.2,4H7.129v8.259H73.2Zm4.129,41.295V37.036L73.2,16.388H7.129L3,37.036v8.259H7.129V70.071H48.424V45.295H64.942V70.071H73.2V45.295ZM40.165,61.812H15.388V45.295H40.165Z" transform="translate(1790.246 742.964)"/>
    <path id="ic_local_shipping_24px" class="cls-4" d="M29.4,9.978H24.914V4H3.989A3,3,0,0,0,1,6.989V23.43H3.989a4.484,4.484,0,0,0,8.968,0h8.968a4.484,4.484,0,0,0,8.968,0h2.989V15.957ZM8.473,25.672a2.242,2.242,0,1,1,2.242-2.242A2.239,2.239,0,0,1,8.473,25.672ZM28.651,12.22l2.929,3.737H24.914V12.22ZM26.409,25.672a2.242,2.242,0,1,1,2.242-2.242A2.239,2.239,0,0,1,26.409,25.672Z" transform="translate(1874.835 784.259)"/>
    <path id="ic_local_airport_24px" class="cls-1" d="M87.692,65.142v-9.02L51.611,33.571V8.765a6.765,6.765,0,1,0-13.53,0V33.571L2,56.121v9.02L38.081,53.866V78.672l-9.02,6.765V92.2l15.785-4.51L60.631,92.2V85.437l-9.02-6.765V53.866Z" transform="matrix(0.574, 0.819, -0.819, 0.574, 1595.36, 714.248)"/>
  </g>
</svg>
